<svg width="652" height="147" viewBox="0 0 652 147" fill="none" xmlns="http://www.w3.org/2000/svg">
<path d="M56.2278 60.6719H39.6904V143.375H56.2278V60.6719Z" fill="#CF3C89"/>
<path d="M18.2569 14.9184V142.925H0V0.559931C1.01918 0.308672 2.0614 0.15458 3.1117 0.0998598C23.5648 0.0998598 58.4655 -0.124825 78.8852 0.0998598C100.822 0.388742 119.858 16.5982 122.305 36.6378C125.195 59.9409 112.117 80.0662 89.9368 85.8548C84.5826 87.052 79.1098 87.6832 73.6141 87.7378C65.8627 88.0481 47.0375 87.8125 39.1198 87.8125C36.019 87.8125 30.6373 88.0371 29.3306 87.9518V72.4807H36.2628C46.1515 72.4807 67.1361 72.609 77.0138 72.4807C98.1423 72.1274 107.433 62.8511 107.179 42.7687C106.946 24.0877 96.6255 14.9505 76.2719 14.9505C59.0523 14.897 36.2737 14.9184 18.2569 14.9184Z" fill="#31A1D3"/>
<path d="M139.09 5.85742H155.221V146.684C150.625 142.243 99.989 92.3503 97.298 89.7614C88.2511 100.407 56.9789 142.445 56.4362 143.172C53.5904 143.397 42.4833 142.455 40.1026 142.969C40.4568 142.53 38.9952 143.461 40.9 140.754C53.0811 123.753 91.6283 74.3008 96.6891 66.929C99.5239 69.6787 139.09 113.621 139.09 113.621V5.85742Z" fill="#D60B52"/>
<path d="M138.914 4.43508C138.914 2.60807 140.395 1.12695 142.222 1.12695H152.144C153.971 1.12695 155.451 2.60807 155.451 4.43508V122.72C155.451 124.181 154.493 125.469 153.094 125.889L143.172 128.866C141.05 129.503 138.914 127.914 138.914 125.698V4.43508Z" fill="#D60B52"/>
<path fill-rule="evenodd" clip-rule="evenodd" d="M269.799 3.6217C268.336 2.0041 266.522 1.19531 264.357 1.19531C263.304 1.19531 262.309 1.41307 261.374 1.84859C260.496 2.28407 259.706 2.87513 259.004 3.6217C258.302 4.3683 257.746 5.23931 257.337 6.23474C256.927 7.23018 256.722 8.28786 256.722 9.40773C256.722 11.6475 257.453 13.5762 258.916 15.1938C260.379 16.7491 262.193 17.5268 264.357 17.5268C266.522 17.5268 268.336 16.7491 269.799 15.1938C271.32 13.5762 272.08 11.6475 272.08 9.40773C272.08 7.10578 271.32 5.17709 269.799 3.6217ZM257.951 25.1793V73.4273H270.764V25.1793H257.951ZM328.692 24.2464C333.901 24.2464 338.054 25.9884 341.154 29.4725C344.313 32.8943 345.893 37.6849 345.893 43.8441V73.4276H333.08V46.5504C333.08 43.4399 332.437 41.0756 331.15 39.458C329.863 37.7783 327.99 36.9384 325.533 36.9384C323.251 36.9384 321.438 37.6849 320.092 39.1782C318.746 40.6089 317.927 42.5376 317.635 44.9641V73.4276H304.822V46.5504C304.822 43.4399 304.178 41.0756 302.891 39.458C301.604 37.7783 299.79 36.9384 297.45 36.9384C294.876 36.9384 292.857 37.8404 291.394 39.6448C289.99 41.3867 289.288 43.7198 289.288 46.6438V73.4276H276.475V25.1796H288.586V30.1257C289.581 28.4459 291.014 27.0461 292.886 25.9262C294.817 24.8063 297.362 24.2464 300.521 24.2464C303.681 24.2464 306.46 24.8997 308.859 26.2062C311.258 27.5127 313.217 29.4103 314.739 31.8989C316.084 29.7213 317.869 27.9171 320.092 26.4862C322.374 24.993 325.241 24.2464 328.692 24.2464ZM368.328 60.8291C366.692 59.0247 365.814 56.6294 365.695 53.6432H396.85V48.2305C396.85 44.4975 396.323 41.1377 395.27 38.1515C394.277 35.1653 392.813 32.6455 390.882 30.5924C389.011 28.5392 386.729 26.9839 384.037 25.9262C381.404 24.8063 378.452 24.2464 375.173 24.2464C371.782 24.2464 368.679 24.8375 365.871 26.0195C363.062 27.1394 360.637 28.7881 358.586 30.9657C356.54 33.1433 354.932 35.7875 353.76 38.898C352.65 41.9467 352.092 45.4308 352.092 49.3502C352.092 53.2075 352.65 56.6916 353.76 59.8024C354.932 62.9133 356.54 65.5575 358.586 67.7347C360.637 69.9123 363.094 71.592 365.958 72.7742C368.886 73.8943 372.073 74.4539 375.524 74.4539C378.157 74.4539 380.646 74.0807 382.984 73.3343C385.385 72.5253 387.491 71.4369 389.303 70.0679C391.177 68.6371 392.725 66.9883 393.954 65.1218C395.183 63.1931 396.004 61.0777 396.411 58.7758L383.51 58.1227C383.044 59.8024 382.078 61.1089 380.614 62.0422C379.21 62.9754 377.399 63.442 375.173 63.442C372.249 63.442 369.967 62.5709 368.328 60.8291ZM368.416 37.4051C370.115 35.725 372.337 34.8851 375.085 34.8851C378.013 34.8851 380.175 35.7562 381.58 37.4981C383.044 39.2403 383.833 41.6043 383.949 44.5909H365.695C365.871 41.48 366.78 39.0848 368.416 37.4051ZM502.457 29.1925C499.242 25.8951 494.559 24.2464 488.416 24.2464C485.492 24.2464 482.859 24.7441 480.517 25.7396C478.179 26.735 476.189 28.0727 474.55 29.7524C472.914 31.37 471.653 33.2054 470.776 35.2584C469.898 37.3117 469.459 39.3959 469.459 41.5113L482.272 42.071C482.272 40.4534 482.771 38.9914 483.764 37.6849C484.761 36.3784 486.369 35.725 488.591 35.725C492.512 35.725 494.471 38.2137 494.471 43.191V45.0575L486.397 45.5241C484 45.6484 481.69 45.9908 479.464 46.5504C477.302 47.0483 475.371 47.8569 473.672 48.977C472.036 50.0967 470.72 51.5899 469.723 53.4564C468.729 55.2608 468.231 57.5005 468.231 60.1757C468.231 64.8419 469.607 68.3882 472.356 70.8147C475.108 73.2409 478.762 74.4539 483.326 74.4539C485.958 74.4539 488.212 73.9877 490.083 73.0544C492.014 72.1212 493.625 70.939 494.91 69.5078V73.4276H507.284V43.6576C507.284 37.2495 505.676 32.4277 502.457 29.1925ZM482.887 55.7896C484.115 55.0431 485.695 54.6074 487.626 54.4831L494.471 54.0165V56.0694C494.471 58.6824 493.681 60.6423 492.102 61.9488C490.582 63.2553 488.651 63.9087 486.309 63.9087C484.789 63.9087 483.533 63.5976 482.536 62.9754C481.542 62.2911 481.044 61.1402 481.044 59.5226C481.044 57.7804 481.658 56.536 482.887 55.7896ZM512.96 97.2242L524.545 69.1343L506.817 25.179H520.947L531.39 53.9224L541.746 25.179H555.963L526.914 97.2242H512.96ZM574.326 62.4147H593.546V73.4269H559.495V64.468L578.1 36.1913H559.846V25.179H592.844V34.2314L574.326 62.4147ZM443.423 73.4269L434.296 47.8566L425.169 73.4269H414.988L397.612 25.179H411.653L420.517 52.8027L429.82 25.179H438.771L448.162 52.8027L457.026 25.179H471.067L453.603 73.4269H443.423ZM249.622 37.8713C245.936 37.8713 243.011 38.898 240.846 40.9509C238.681 42.9417 237.599 45.6172 237.599 48.9766V73.4273H224.786V25.1793H237.16V30.6854C238.154 29.0678 239.588 27.668 241.46 26.4858C243.391 25.3038 246.111 24.7127 249.622 24.7127V37.8713ZM206.972 5.11438C204.397 4.11891 201.56 3.62121 198.459 3.62121H170.024V73.4266H183.627V48.6027H198.459C201.56 48.6027 204.397 48.1052 206.972 47.1098C209.604 46.1144 211.857 44.6832 213.729 42.8167C215.601 40.8881 217.035 38.524 218.029 35.7243C219.082 32.9245 219.609 29.7205 219.609 26.112C219.609 22.5035 219.082 19.3306 218.029 16.5931C217.035 13.7934 215.601 11.4292 213.729 9.50053C211.857 7.57188 209.604 6.10981 206.972 5.11438ZM196.704 35.8177H183.54V16.3131H196.704C199.336 16.3131 201.501 17.153 203.198 18.8328C204.953 20.5126 205.831 22.939 205.831 26.112C205.831 29.285 204.953 31.7114 203.198 33.3911C201.501 35.0087 199.336 35.8177 196.704 35.8177Z" fill="#31A1D3"/>
<path d="M613.141 31.9281C612.678 31.9281 612.302 31.7943 612.011 31.5266C611.744 31.2346 611.607 30.8574 611.607 30.395V8.56686H603.762C603.326 8.56686 602.986 8.45735 602.74 8.23836C602.498 8.01934 602.375 7.70299 602.375 7.28931C602.375 6.87559 602.498 6.55924 602.74 6.34025C602.986 6.12123 603.326 6.01172 603.762 6.01172H622.486C622.921 6.01172 623.262 6.12123 623.508 6.34025C623.75 6.55924 623.873 6.87559 623.873 7.28931C623.873 7.70299 623.75 8.01934 623.508 8.23836C623.262 8.45735 622.921 8.56686 622.486 8.56686H614.637V30.395C614.637 30.8574 614.503 31.2346 614.237 31.5266C613.97 31.7943 613.605 31.9281 613.141 31.9281Z" fill="#1D1D1B"/>
<path d="M650.061 5.82812C650.524 5.82812 650.879 5.97415 651.121 6.26617C651.388 6.53382 651.521 6.89884 651.521 7.36122V30.4669C651.521 30.905 651.402 31.2578 651.156 31.5255C650.914 31.7932 650.573 31.927 650.134 31.927C649.696 31.927 649.369 31.7932 649.151 31.5255C648.93 31.2578 648.821 30.905 648.821 30.4669V11.8145L640.902 26.9992C640.561 27.7049 640.063 28.0578 639.407 28.0578C638.775 28.0578 638.273 27.7049 637.911 26.9992L629.953 11.997V30.4669C629.953 30.905 629.834 31.2578 629.588 31.5255C629.37 31.7932 629.04 31.927 628.605 31.927C628.166 31.927 627.826 31.7932 627.58 31.5255C627.338 31.2578 627.215 30.905 627.215 30.4669V7.36122C627.215 6.89884 627.352 6.53382 627.619 6.26617C627.885 5.97415 628.25 5.82812 628.714 5.82812C629.321 5.82812 629.809 6.18099 630.174 6.88669L639.442 24.6631L648.604 6.88669C648.797 6.49734 649.004 6.22966 649.222 6.08366C649.467 5.91331 649.745 5.82812 650.061 5.82812Z" fill="#1D1D1B"/>
<path d="M173.727 107.338H177.464V144.749H173.727V107.338Z" fill="#1D1D1B"/>
<path d="M185.475 117.077H189.035V122.037C190.458 120.138 192.035 118.722 193.764 117.79C195.493 116.84 197.375 116.365 199.409 116.365C201.477 116.365 203.308 116.891 204.901 117.942C206.512 118.993 207.698 120.409 208.461 122.189C209.224 123.97 209.606 126.742 209.606 130.506V144.748H206.071V131.549C206.071 128.361 205.935 126.233 205.664 125.165C205.24 123.334 204.444 121.961 203.274 121.045C202.104 120.112 200.579 119.646 198.697 119.646C196.544 119.646 194.612 120.358 192.9 121.782C191.204 123.207 190.085 124.97 189.543 127.072C189.204 128.446 189.035 130.955 189.035 134.6V144.748H185.475V117.077Z" fill="#1D1D1B"/>
<path d="M228.65 106.396V109.88C227.345 109.321 226.226 109.041 225.294 109.041C224.599 109.041 224.022 109.185 223.565 109.473C223.107 109.744 222.819 110.066 222.7 110.44C222.581 110.796 222.522 111.762 222.522 113.339V117.078H228.294V120.129H222.497V144.748H218.937V120.129H215.301V117.078H218.937V112.754C218.937 110.77 219.115 109.355 219.471 108.507C219.844 107.659 220.463 106.981 221.327 106.472C222.209 105.947 223.268 105.684 224.506 105.684C225.658 105.684 227.04 105.921 228.65 106.396Z" fill="#1D1D1B"/>
<path d="M246.729 116.365C250.984 116.365 254.51 117.908 257.307 120.994C259.85 123.808 261.121 127.14 261.121 130.989C261.121 134.855 259.773 138.237 257.078 141.137C254.4 144.019 250.95 145.46 246.729 145.46C242.491 145.46 239.024 144.019 236.329 141.137C233.651 138.237 232.312 134.855 232.312 130.989C232.312 127.157 233.583 123.834 236.126 121.019C238.923 117.916 242.457 116.365 246.729 116.365ZM246.729 119.849C243.779 119.849 241.245 120.943 239.126 123.13C237.007 125.318 235.948 127.963 235.948 131.065C235.948 133.066 236.431 134.931 237.397 136.66C238.363 138.39 239.669 139.729 241.313 140.679C242.957 141.612 244.763 142.078 246.729 142.078C248.696 142.078 250.501 141.612 252.145 140.679C253.79 139.729 255.095 138.39 256.061 136.66C257.027 134.931 257.51 133.066 257.51 131.065C257.51 127.963 256.442 125.318 254.307 123.13C252.188 120.943 249.662 119.849 246.729 119.849Z" fill="#1D1D1B"/>
<path d="M270.861 106.803H274.446V117.078H280.091V120.129H274.446V144.748H270.861V120.129H266.004V117.078H270.861V106.803Z" fill="#1D1D1B"/>
<path d="M308.697 135.567L311.697 137.144C310.714 139.077 309.578 140.637 308.29 141.823C307.002 143.01 305.552 143.918 303.942 144.545C302.331 145.155 300.509 145.46 298.475 145.46C293.966 145.46 290.44 143.985 287.897 141.035C285.354 138.068 284.083 134.719 284.083 130.989C284.083 127.479 285.159 124.351 287.312 121.604C290.041 118.112 293.695 116.365 298.272 116.365C302.984 116.365 306.747 118.154 309.562 121.732C311.562 124.258 312.579 127.412 312.613 131.192H287.744C287.812 134.414 288.838 137.059 290.821 139.128C292.805 141.179 295.254 142.205 298.17 142.205C299.577 142.205 300.942 141.959 302.264 141.467C303.603 140.975 304.739 140.323 305.671 139.509C306.603 138.695 307.612 137.381 308.697 135.567ZM308.697 128.115C308.222 126.216 307.527 124.699 306.612 123.563C305.713 122.427 304.518 121.511 303.027 120.816C301.535 120.121 299.967 119.773 298.322 119.773C295.61 119.773 293.279 120.646 291.33 122.393C289.906 123.664 288.829 125.572 288.101 128.115H308.697Z" fill="#1D1D1B"/>
<path d="M346.125 122.825L343.303 124.58C340.862 121.342 337.53 119.723 333.31 119.723C329.936 119.723 327.132 120.807 324.894 122.978C322.673 125.148 321.563 127.785 321.563 130.887C321.563 132.905 322.072 134.804 323.088 136.584C324.123 138.365 325.53 139.747 327.31 140.73C329.107 141.713 331.116 142.205 333.337 142.205C337.403 142.205 340.729 140.586 343.303 137.347L346.125 139.204C344.805 141.188 343.026 142.73 340.787 143.832C338.565 144.918 336.032 145.46 333.183 145.46C328.808 145.46 325.182 144.07 322.3 141.289C319.418 138.509 317.978 135.126 317.978 131.142C317.978 128.463 318.647 125.979 319.986 123.69C321.342 121.384 323.199 119.587 325.555 118.298C327.91 117.01 330.547 116.365 333.464 116.365C335.295 116.365 337.057 116.645 338.75 117.205C340.465 117.764 341.915 118.493 343.101 119.392C344.287 120.29 345.295 121.435 346.125 122.825Z" fill="#1D1D1B"/>
<path d="M352.992 106.395H356.551V122.036C357.994 120.137 359.578 118.721 361.306 117.789C363.037 116.839 364.909 116.364 366.928 116.364C368.995 116.364 370.826 116.89 372.42 117.941C374.028 118.992 375.218 120.408 375.979 122.188C376.743 123.952 377.124 126.724 377.124 130.505V144.747H373.562V131.548C373.562 128.36 373.435 126.232 373.181 125.164C372.742 123.333 371.937 121.96 370.768 121.044C369.612 120.111 368.097 119.645 366.215 119.645C364.062 119.645 362.129 120.357 360.418 121.781C358.721 123.206 357.603 124.969 357.062 127.071C356.722 128.428 356.551 130.937 356.551 134.599V144.747H352.992V106.395Z" fill="#1D1D1B"/>
<path d="M399.777 107.338H407.23C411.502 107.338 414.382 107.524 415.873 107.897C418.009 108.423 419.757 109.508 421.111 111.153C422.469 112.781 423.148 114.832 423.148 117.308C423.148 119.8 422.486 121.86 421.163 123.488C419.84 125.098 418.019 126.184 415.695 126.743C414.001 127.15 410.83 127.354 406.188 127.354H403.518V144.749H399.777V107.338ZM403.518 110.975V123.691L409.85 123.768C412.407 123.768 414.282 123.539 415.469 123.081C416.655 122.606 417.587 121.852 418.266 120.817C418.941 119.766 419.281 118.596 419.281 117.308C419.281 116.053 418.941 114.909 418.266 113.874C417.587 112.823 416.689 112.077 415.568 111.636C414.467 111.195 412.654 110.975 410.127 110.975H403.518Z" fill="#1D1D1B"/>
<path d="M427.42 117.078H431.208L440.465 137.221L449.642 117.078H453.458L440.794 144.749H440.159L427.42 117.078Z" fill="#1D1D1B"/>
<path d="M462.024 106.803H465.61V117.078H471.257V120.129H465.61V144.748H462.024V120.129H457.17V117.078H462.024V106.803Z" fill="#1D1D1B"/>
<path d="M480.486 139.152C481.35 139.152 482.087 139.458 482.697 140.068C483.307 140.678 483.613 141.424 483.613 142.306C483.613 143.171 483.307 143.917 482.697 144.544C482.087 145.154 481.35 145.46 480.486 145.46C479.622 145.46 478.885 145.154 478.275 144.544C477.665 143.917 477.359 143.171 477.359 142.306C477.359 141.424 477.665 140.678 478.275 140.068C478.885 139.458 479.622 139.152 480.486 139.152Z" fill="#1D1D1B"/>
<path d="M506.04 107.338H509.804V141.138H524.172V144.749H506.04V107.338Z" fill="#1D1D1B"/>
<path d="M532.612 106.803H536.198V117.078H541.845V120.129H536.198V144.748H532.612V120.129H527.758V117.078H532.612V106.803Z" fill="#1D1D1B"/>
<path d="M574.773 106.395V144.747H571.263V139.991C569.771 141.805 568.091 143.17 566.23 144.086C564.382 145.001 562.356 145.459 560.152 145.459C556.236 145.459 552.887 144.043 550.107 141.212C547.344 138.364 545.962 134.905 545.962 130.835C545.962 126.851 547.361 123.443 550.158 120.611C552.956 117.78 556.319 116.364 560.254 116.364C562.524 116.364 564.574 116.847 566.405 117.814C568.253 118.78 569.874 120.23 571.263 122.163V106.395H574.773ZM560.532 119.798C558.551 119.798 556.72 120.289 555.04 121.273C553.364 122.239 552.023 123.604 551.022 125.367C550.038 127.131 549.548 128.996 549.548 130.963C549.548 132.912 550.048 134.778 551.049 136.558C552.047 138.338 553.388 139.728 555.064 140.729C556.761 141.712 558.575 142.204 560.508 142.204C562.455 142.204 564.303 141.712 566.052 140.729C567.797 139.746 569.137 138.414 570.069 136.736C571.016 135.057 571.492 133.167 571.492 131.064C571.492 127.86 570.433 125.181 568.314 123.028C566.213 120.874 563.617 119.798 560.532 119.798Z" fill="#1D1D1B"/>
<path d="M586.776 139.152C587.64 139.152 588.377 139.458 588.988 140.068C589.598 140.678 589.903 141.424 589.903 142.306C589.903 143.171 589.598 143.917 588.988 144.544C588.377 145.154 587.64 145.46 586.776 145.46C585.909 145.46 585.172 145.154 584.562 144.544C583.952 143.917 583.646 143.171 583.646 142.306C583.646 141.424 583.952 140.678 584.562 140.068C585.172 139.458 585.909 139.152 586.776 139.152Z" fill="#1D1D1B"/>
<rect x="600.962" y="108.184" width="49" height="37" rx="3.5" fill="#2B7DB1" stroke="#75A7C7"/>
<path d="M621.292 117.604H623.934V129.084C623.934 130.305 623.647 131.388 623.073 132.331C622.499 133.268 621.692 134.007 620.653 134.547C619.613 135.081 618.394 135.348 616.996 135.348C615.604 135.348 614.388 135.081 613.349 134.547C612.309 134.007 611.502 133.268 610.928 132.331C610.354 131.388 610.067 130.305 610.067 129.084V117.604H612.701V128.871C612.701 129.66 612.874 130.362 613.221 130.976C613.573 131.589 614.07 132.072 614.712 132.425C615.354 132.771 616.116 132.944 616.996 132.944C617.883 132.944 618.647 132.771 619.289 132.425C619.937 132.072 620.431 131.589 620.772 130.976C621.119 130.362 621.292 129.66 621.292 128.871V117.604Z" fill="white"/>
<path d="M627.763 135.058V117.604H630.396V125.939H630.609L637.93 117.604H641.246L634.206 125.461L641.271 135.058H638.101L632.459 127.26L630.396 129.629V135.058H627.763Z" fill="white"/>
</svg>
