<svg xmlns="http://www.w3.org/2000/svg" width="192" height="45" viewBox="0 0 192 45" fill="none"><path d="M17 19H12V44H17V19Z" fill="#CF3C89"></path><path d="M5.51991 5.16953V43.864H0V0.829171C0.308144 0.753219 0.623255 0.706639 0.94081 0.690098C7.12471 0.690098 17.6768 0.622179 23.8506 0.690098C30.4832 0.777423 36.2385 5.6773 36.9784 11.735C37.8523 18.7792 33.8982 24.8628 27.192 26.6126C25.5732 26.9745 23.9185 27.1653 22.2569 27.1818C19.9133 27.2756 14.2216 27.2044 11.8277 27.2044C10.8902 27.2044 9.26306 27.2723 8.86798 27.2465V22.5698H10.9639C13.9537 22.5698 20.2983 22.6086 23.2848 22.5698C29.6729 22.463 32.482 19.6589 32.405 13.5883C32.3347 7.94127 29.2143 5.17923 23.0605 5.17923C17.8542 5.16306 10.9672 5.16953 5.51991 5.16953Z" fill="#31A1D3"></path><path d="M42.053 2.43042H46.93V45.0002C45.5406 43.6579 30.2309 28.576 29.4173 27.7934C26.682 31.0114 17.227 43.7188 17.0629 43.9387C16.2025 44.0066 12.8443 43.722 12.1245 43.8773C12.2316 43.7446 11.7897 44.026 12.3656 43.2078C16.0485 38.0686 27.7031 23.1199 29.2332 20.8915C30.0903 21.7227 42.053 35.0057 42.053 35.0057V2.43042Z" fill="#D60B52"></path><path d="M42 2C42 1.44772 42.4477 1 43 1H46C46.5523 1 47 1.44772 47 2V37.756C47 38.1976 46.7103 38.5869 46.2873 38.7138L43.2873 39.6138C42.6457 39.8063 42 39.3258 42 38.656V2Z" fill="#D60B52"></path><path fill-rule="evenodd" clip-rule="evenodd" d="M82.4223 1.69106C82.0056 1.23035 81.4889 1 80.8723 1C80.5723 1 80.2889 1.06202 80.0223 1.18606C79.7723 1.31009 79.5473 1.47843 79.3473 1.69106C79.1473 1.9037 78.9889 2.15177 78.8723 2.43528C78.7556 2.71879 78.6973 3.02003 78.6973 3.33898C78.6973 3.97688 78.9056 4.52619 79.3223 4.9869C79.7389 5.42988 80.2556 5.65138 80.8723 5.65138C81.4889 5.65138 82.0056 5.42988 82.4223 4.9869C82.8556 4.52619 83.0723 3.97688 83.0723 3.33898C83.0723 2.68336 82.8556 2.13405 82.4223 1.69106ZM79.0473 7.83088V21.5724H82.6973V7.83088H79.0473ZM99.1992 7.56519C100.683 7.56519 101.866 8.06133 102.749 9.05363C103.649 10.0282 104.099 11.3926 104.099 13.1468V21.5725H100.449V13.9176C100.449 13.0317 100.266 12.3583 99.8992 11.8976C99.5326 11.4192 98.9992 11.18 98.2992 11.18C97.6492 11.18 97.1326 11.3926 96.7492 11.8179C96.3659 12.2254 96.1326 12.7747 96.0492 13.4658V21.5725H92.3992V13.9176C92.3992 13.0317 92.2159 12.3583 91.8492 11.8976C91.4826 11.4192 90.9659 11.18 90.2992 11.18C89.5659 11.18 88.9909 11.4369 88.5742 11.9508C88.1742 12.4469 87.9742 13.1114 87.9742 13.9442V21.5725H84.3242V7.83098H87.7742V9.23968C88.0576 8.76125 88.4659 8.36256 88.9992 8.04361C89.5492 7.72466 90.2742 7.56519 91.1742 7.56519C92.0742 7.56519 92.8659 7.75124 93.5492 8.12335C94.2326 8.49546 94.7909 9.03591 95.2242 9.74469C95.6076 9.1245 96.1159 8.61064 96.7492 8.20309C97.3992 7.77782 98.2159 7.56519 99.1992 7.56519ZM110.49 17.9843C110.024 17.4704 109.774 16.7882 109.74 15.9377H118.615V14.3961C118.615 13.3329 118.465 12.376 118.165 11.5255C117.882 10.675 117.465 9.95732 116.915 9.37258C116.382 8.78783 115.732 8.34484 114.965 8.04361C114.215 7.72466 113.374 7.56519 112.44 7.56519C111.474 7.56519 110.59 7.73352 109.79 8.07019C108.99 8.38914 108.299 8.85871 107.715 9.4789C107.132 10.0991 106.674 10.8522 106.34 11.7381C106.024 12.6064 105.865 13.5987 105.865 14.715C105.865 15.8136 106.024 16.8059 106.34 17.6919C106.674 18.5779 107.132 19.331 107.715 19.9511C108.299 20.5713 108.999 21.0497 109.815 21.3864C110.649 21.7054 111.557 21.8648 112.54 21.8648C113.29 21.8648 113.999 21.7585 114.665 21.5459C115.349 21.3155 115.949 21.0055 116.465 20.6156C116.999 20.2081 117.44 19.7385 117.79 19.2069C118.14 18.6576 118.374 18.0551 118.49 17.3995L114.815 17.2135C114.682 17.6919 114.407 18.064 113.99 18.3298C113.59 18.5956 113.074 18.7285 112.44 18.7285C111.607 18.7285 110.957 18.4804 110.49 17.9843ZM110.515 11.3129C110.999 10.8344 111.632 10.5952 112.415 10.5952C113.249 10.5952 113.865 10.8433 114.265 11.3394C114.682 11.8356 114.907 12.5089 114.94 13.3595H109.74C109.79 12.4735 110.049 11.7913 110.515 11.3129ZM148.699 8.97389C147.783 8.03475 146.449 7.56519 144.699 7.56519C143.866 7.56519 143.116 7.70694 142.449 7.99045C141.783 8.27397 141.216 8.65494 140.749 9.13336C140.283 9.59407 139.924 10.1168 139.674 10.7015C139.424 11.2863 139.299 11.8799 139.299 12.4824L142.949 12.6418C142.949 12.1811 143.091 11.7647 143.374 11.3926C143.658 11.0205 144.116 10.8344 144.749 10.8344C145.866 10.8344 146.424 11.5432 146.424 12.9608V13.4924L144.124 13.6253C143.441 13.6607 142.783 13.7582 142.149 13.9176C141.533 14.0594 140.983 14.2897 140.499 14.6087C140.033 14.9276 139.658 15.3529 139.374 15.8845C139.091 16.3984 138.949 17.0363 138.949 17.7982C138.949 19.1272 139.341 20.1372 140.124 20.8283C140.908 21.5193 141.949 21.8648 143.249 21.8648C143.999 21.8648 144.641 21.732 145.174 21.4662C145.724 21.2004 146.183 20.8637 146.549 20.4561V21.5725H150.074V13.0937C150.074 11.2686 149.616 9.8953 148.699 8.97389ZM143.124 16.549C143.474 16.3364 143.924 16.2123 144.474 16.1769L146.424 16.044V16.6287C146.424 17.3729 146.199 17.9311 145.749 18.3032C145.316 18.6753 144.766 18.8614 144.099 18.8614C143.666 18.8614 143.308 18.7728 143.024 18.5956C142.741 18.4007 142.599 18.0729 142.599 17.6122C142.599 17.116 142.774 16.7616 143.124 16.549ZM151.691 28.35L154.991 20.3497L149.941 7.83081H153.966L156.941 16.0172L159.891 7.83081H163.941L155.666 28.35H151.691ZM169.172 18.4359H174.647V21.5723H164.947V19.0207L170.247 10.9672H165.047V7.83081H174.447V10.409L169.172 18.4359ZM131.882 21.5723L129.282 14.2896L126.682 21.5723H123.782L118.832 7.83081H122.832L125.357 15.6983L128.007 7.83081H130.557L133.232 15.6983L135.757 7.83081H139.757L134.782 21.5723H131.882ZM76.6746 11.4457C75.6246 11.4457 74.7913 11.7381 74.1746 12.3228C73.5579 12.8898 73.2496 13.6518 73.2496 14.6086V21.5724H69.5996V7.83089H73.1246V9.39907C73.4079 8.93836 73.8163 8.53968 74.3496 8.203C74.8996 7.86633 75.6746 7.698 76.6746 7.698V11.4457ZM64.525 2.11619C63.7917 1.83267 62.9833 1.69092 62.1 1.69092H54V21.5722H57.875V14.5021H62.1C62.9833 14.5021 63.7917 14.3604 64.525 14.0769C65.275 13.7934 65.9167 13.3858 66.45 12.8542C66.9833 12.3049 67.3917 11.6316 67.675 10.8342C67.975 10.0368 68.125 9.12426 68.125 8.09653C68.125 7.0688 67.975 6.1651 67.675 5.38544C67.3917 4.58806 66.9833 3.91472 66.45 3.36541C65.9167 2.81611 65.275 2.3997 64.525 2.11619ZM61.6 10.8608H57.85V5.3057H61.6C62.35 5.3057 62.9667 5.54492 63.45 6.02334C63.95 6.50177 64.2 7.19283 64.2 8.09653C64.2 9.00022 63.95 9.69129 63.45 10.1697C62.9667 10.6304 62.35 10.8608 61.6 10.8608Z" fill="#31A1D3"></path><path d="M180.514 9.46814C180.382 9.46814 180.275 9.43002 180.192 9.35378C180.116 9.27061 180.077 9.16319 180.077 9.0315V2.81462H177.842C177.718 2.81462 177.621 2.78343 177.551 2.72106C177.482 2.65868 177.447 2.56858 177.447 2.45076C177.447 2.33293 177.482 2.24283 177.551 2.18046C177.621 2.11808 177.718 2.08689 177.842 2.08689H183.176C183.3 2.08689 183.397 2.11808 183.467 2.18046C183.536 2.24283 183.571 2.33293 183.571 2.45076C183.571 2.56858 183.536 2.65868 183.467 2.72106C183.397 2.78343 183.3 2.81462 183.176 2.81462H180.94V9.0315C180.94 9.16319 180.902 9.27061 180.826 9.35378C180.75 9.43002 180.646 9.46814 180.514 9.46814Z" fill="#1D1D1B"></path><path d="M191.031 2.03491C191.163 2.03491 191.264 2.0765 191.333 2.15967C191.409 2.2359 191.447 2.33986 191.447 2.47155V9.05229C191.447 9.17705 191.413 9.27754 191.343 9.35378C191.274 9.43002 191.177 9.46814 191.052 9.46814C190.927 9.46814 190.834 9.43002 190.772 9.35378C190.709 9.27754 190.678 9.17705 190.678 9.05229V3.73988L188.422 8.06466C188.325 8.26565 188.183 8.36615 187.996 8.36615C187.816 8.36615 187.673 8.26565 187.57 8.06466L185.303 3.79186V9.05229C185.303 9.17705 185.269 9.27754 185.199 9.35378C185.137 9.43002 185.043 9.46814 184.919 9.46814C184.794 9.46814 184.697 9.43002 184.627 9.35378C184.558 9.27754 184.523 9.17705 184.523 9.05229V2.47155C184.523 2.33986 184.562 2.2359 184.638 2.15967C184.714 2.0765 184.818 2.03491 184.95 2.03491C185.123 2.03491 185.262 2.13541 185.366 2.3364L188.006 7.39931L190.616 2.3364C190.671 2.22551 190.73 2.14927 190.792 2.10769C190.862 2.05917 190.941 2.03491 191.031 2.03491Z" fill="#1D1D1B"></path><path d="M55.0547 31.8246H56.145V42.7351H55.0547V31.8246Z" fill="#1D1D1B"></path><path d="M58.4814 34.6654H59.5198V36.1117C59.9351 35.5579 60.395 35.145 60.8993 34.8731C61.4037 34.5961 61.9526 34.4577 62.5459 34.4577C63.1492 34.4577 63.6832 34.611 64.148 34.9176C64.6178 35.2241 64.9639 35.637 65.1864 36.1562C65.4089 36.6754 65.5202 37.4839 65.5202 38.5816V42.7351H64.4892V38.8857C64.4892 37.9561 64.4496 37.3355 64.3705 37.024C64.2469 36.49 64.0145 36.0895 63.6733 35.8224C63.3321 35.5505 62.8871 35.4145 62.3382 35.4145C61.7103 35.4145 61.1466 35.6222 60.6472 36.0375C60.1527 36.4529 59.8263 36.9671 59.6681 37.5803C59.5692 37.9808 59.5198 38.7126 59.5198 39.7757V42.7351H58.4814V34.6654Z" fill="#1D1D1B"></path><path d="M71.0756 31.5502V32.5663C70.6948 32.4032 70.3685 32.3216 70.0965 32.3216C69.8938 32.3216 69.7256 32.3636 69.5921 32.4477C69.4586 32.5268 69.3746 32.6207 69.34 32.7295C69.3053 32.8334 69.288 33.1152 69.288 33.5751V34.6654H70.9717V35.5554H69.2806V42.7351H68.2422V35.5554H67.1816V34.6654H68.2422V33.4045C68.2422 32.8259 68.2942 32.4131 68.398 32.1658C68.5068 31.9186 68.6873 31.7208 68.9394 31.5725C69.1966 31.4192 69.5056 31.3425 69.8666 31.3425C70.2028 31.3425 70.6058 31.4118 71.0756 31.5502Z" fill="#1D1D1B"></path><path d="M76.3491 34.4577C77.5902 34.4577 78.6187 34.9077 79.4346 35.8076C80.1763 36.6284 80.5471 37.6001 80.5471 38.7225C80.5471 39.8499 80.154 40.8364 79.3678 41.6819C78.5866 42.5225 77.5803 42.9428 76.3491 42.9428C75.1129 42.9428 74.1017 42.5225 73.3155 41.6819C72.5342 40.8364 72.1436 39.8499 72.1436 38.7225C72.1436 37.605 72.5145 36.6358 73.2562 35.815C74.072 34.9101 75.103 34.4577 76.3491 34.4577ZM76.3491 35.4738C75.4887 35.4738 74.7495 35.7928 74.1314 36.4306C73.5133 37.0685 73.2043 37.8399 73.2043 38.7448C73.2043 39.3282 73.3452 39.8722 73.627 40.3765C73.9089 40.8809 74.2896 41.2715 74.7693 41.5484C75.2489 41.8204 75.7755 41.9564 76.3491 41.9564C76.9227 41.9564 77.4493 41.8204 77.9289 41.5484C78.4086 41.2715 78.7893 40.8809 79.0712 40.3765C79.353 39.8722 79.4939 39.3282 79.4939 38.7448C79.4939 37.8399 79.1824 37.0685 78.5594 36.4306C77.9413 35.7928 77.2045 35.4738 76.3491 35.4738Z" fill="#1D1D1B"></path><path d="M83.3879 31.6689H84.4337V34.6654H86.0803V35.5554H84.4337V42.7351H83.3879V35.5554H81.9712V34.6654H83.3879V31.6689Z" fill="#1D1D1B"></path><path d="M94.4245 40.0576L95.2997 40.5174C95.0129 41.0811 94.6816 41.5361 94.3058 41.8822C93.93 42.2283 93.5072 42.4929 93.0375 42.6758C92.5677 42.8538 92.0362 42.9428 91.4428 42.9428C90.1275 42.9428 89.099 42.5126 88.3573 41.6523C87.6156 40.7869 87.2448 39.8103 87.2448 38.7225C87.2448 37.699 87.5588 36.7867 88.1867 35.9856C88.9828 34.967 90.0484 34.4577 91.3835 34.4577C92.7581 34.4577 93.8558 34.9794 94.6767 36.0227C95.2601 36.7595 95.5568 37.6792 95.5667 38.7818H88.3128C88.3326 39.7213 88.6318 40.4927 89.2103 41.096C89.7888 41.6943 90.5033 41.9934 91.3538 41.9934C91.7642 41.9934 92.1623 41.9217 92.548 41.7783C92.9386 41.6349 93.2699 41.4446 93.5419 41.2072C93.8138 40.9699 94.108 40.5867 94.4245 40.0576ZM94.4245 37.8844C94.286 37.3306 94.0833 36.888 93.8163 36.5567C93.5542 36.2254 93.2056 35.9584 92.7705 35.7557C92.3353 35.553 91.878 35.4516 91.3983 35.4516C90.6072 35.4516 89.9273 35.7062 89.3586 36.2155C88.9433 36.5864 88.6293 37.1427 88.4167 37.8844H94.4245Z" fill="#1D1D1B"></path><path d="M105.342 36.3416L104.519 36.8534C103.807 35.909 102.835 35.4368 101.604 35.4368C100.62 35.4368 99.8019 35.7532 99.1492 36.3861C98.5014 37.0191 98.1775 37.788 98.1775 38.6928C98.1775 39.2813 98.3259 39.8351 98.6225 40.3543C98.9242 40.8735 99.3346 41.2765 99.8538 41.5632C100.378 41.85 100.964 41.9934 101.612 41.9934C102.798 41.9934 103.768 41.5212 104.519 40.5768L105.342 41.1182C104.957 41.6968 104.438 42.1467 103.785 42.4681C103.137 42.7846 102.398 42.9428 101.567 42.9428C100.291 42.9428 99.2332 42.5374 98.3926 41.7264C97.552 40.9155 97.1317 39.929 97.1317 38.767C97.1317 37.9857 97.327 37.2613 97.7177 36.5938C98.1132 35.9213 98.6547 35.3972 99.342 35.0214C100.029 34.6456 100.798 34.4577 101.649 34.4577C102.183 34.4577 102.697 34.5393 103.191 34.7025C103.691 34.8656 104.114 35.0783 104.46 35.3403C104.806 35.6024 105.1 35.9362 105.342 36.3416Z" fill="#1D1D1B"></path><path d="M107.345 31.5502H108.383V36.1117C108.804 35.5579 109.266 35.145 109.77 34.8731C110.275 34.5961 110.821 34.4577 111.41 34.4577C112.013 34.4577 112.547 34.611 113.012 34.9176C113.481 35.2241 113.828 35.637 114.05 36.1562C114.273 36.6705 114.384 37.4789 114.384 38.5816V42.7351H113.345V38.8857C113.345 37.9561 113.308 37.3355 113.234 37.024C113.106 36.49 112.871 36.0895 112.53 35.8224C112.193 35.5505 111.751 35.4145 111.202 35.4145C110.574 35.4145 110.01 35.6222 109.511 36.0375C109.016 36.4529 108.69 36.9671 108.532 37.5803C108.433 37.9759 108.383 38.7077 108.383 39.7757V42.7351H107.345V31.5502Z" fill="#1D1D1B"></path><path d="M120.992 31.8246H123.166C124.412 31.8246 125.252 31.879 125.687 31.9878C126.31 32.1411 126.82 32.4576 127.215 32.9372C127.611 33.4119 127.809 34.0102 127.809 34.7321C127.809 35.459 127.616 36.0598 127.23 36.5345C126.844 37.0042 126.313 37.3207 125.635 37.4839C125.141 37.6025 124.216 37.6619 122.862 37.6619H122.083V42.7351H120.992V31.8246ZM122.083 32.8853V36.5938L123.93 36.6161C124.676 36.6161 125.223 36.5493 125.569 36.4158C125.915 36.2774 126.187 36.0573 126.385 35.7557C126.582 35.4491 126.681 35.1079 126.681 34.7321C126.681 34.3662 126.582 34.0325 126.385 33.7308C126.187 33.4243 125.925 33.2067 125.598 33.0781C125.277 32.9496 124.748 32.8853 124.011 32.8853H122.083Z" fill="#1D1D1B"></path><path d="M129.055 34.6654H130.16L132.86 40.5397L135.537 34.6654H136.65L132.956 42.7351H132.771L129.055 34.6654Z" fill="#1D1D1B"></path><path d="M139.149 31.6689H140.195V34.6654H141.842V35.5554H140.195V42.7351H139.149V35.5554H137.733V34.6654H139.149V31.6689Z" fill="#1D1D1B"></path><path d="M144.534 41.1034C144.786 41.1034 145.001 41.1924 145.179 41.3704C145.357 41.5484 145.446 41.766 145.446 42.0231C145.446 42.2753 145.357 42.4929 145.179 42.6758C145.001 42.8538 144.786 42.9428 144.534 42.9428C144.282 42.9428 144.067 42.8538 143.889 42.6758C143.711 42.4929 143.622 42.2753 143.622 42.0231C143.622 41.766 143.711 41.5484 143.889 41.3704C144.067 41.1924 144.282 41.1034 144.534 41.1034Z" fill="#1D1D1B"></path><path d="M151.988 31.8246H153.086V41.6819H157.277V42.7351H151.988V31.8246Z" fill="#1D1D1B"></path><path d="M159.739 31.6689H160.785V34.6654H162.432V35.5554H160.785V42.7351H159.739V35.5554H158.323V34.6654H159.739V31.6689Z" fill="#1D1D1B"></path><path d="M172.037 31.5502V42.7351H171.013V41.3482C170.578 41.8772 170.088 42.2753 169.545 42.5423C169.006 42.8093 168.415 42.9428 167.772 42.9428C166.63 42.9428 165.653 42.5299 164.842 41.7042C164.036 40.8735 163.633 39.8647 163.633 38.678C163.633 37.516 164.041 36.5221 164.857 35.6963C165.673 34.8706 166.654 34.4577 167.802 34.4577C168.464 34.4577 169.062 34.5986 169.596 34.8805C170.135 35.1623 170.608 35.5851 171.013 36.1488V31.5502H172.037ZM167.883 35.459C167.305 35.459 166.771 35.6024 166.281 35.8892C165.792 36.171 165.401 36.5691 165.109 37.0833C164.822 37.5976 164.679 38.1415 164.679 38.7151C164.679 39.2837 164.825 39.8277 165.117 40.3468C165.408 40.866 165.799 41.2715 166.288 41.5632C166.783 41.85 167.312 41.9934 167.876 41.9934C168.444 41.9934 168.983 41.85 169.493 41.5632C170.002 41.2765 170.393 40.8883 170.665 40.3988C170.941 39.9092 171.08 39.3579 171.08 38.7448C171.08 37.8102 170.771 37.0289 170.153 36.401C169.54 35.773 168.783 35.459 167.883 35.459Z" fill="#1D1D1B"></path><path d="M175.538 41.1034C175.79 41.1034 176.005 41.1924 176.183 41.3704C176.361 41.5484 176.45 41.766 176.45 42.0231C176.45 42.2753 176.361 42.4929 176.183 42.6758C176.005 42.8538 175.79 42.9428 175.538 42.9428C175.285 42.9428 175.07 42.8538 174.892 42.6758C174.714 42.4929 174.625 42.2753 174.625 42.0231C174.625 41.766 174.714 41.5484 174.892 41.3704C175.07 41.1924 175.285 41.1034 175.538 41.1034Z" fill="#1D1D1B"></path></svg>